<svg version="1.1" viewBox="0.0 0.0 672.0 672.0" fill="none" stroke="none" stroke-linecap="square" stroke-miterlimit="10" xmlns:xlink="http://www.w3.org/1999/xlink" xmlns="http://www.w3.org/2000/svg"><clipPath id="p.0"><path d="m0 0l672.0 0l0 672.0l-672.0 0l0 -672.0z" clip-rule="nonzero"/></clipPath><g clip-path="url(#p.0)"><path fill="#ffffff" d="m0 0l672.0 0l0 672.0l-672.0 0z" fill-rule="evenodd"/><path fill="#b6d7a8" d="m10.087927 36.39897l0 0c0 -15.443989 12.519825 -27.963816 27.963812 -27.963816l111.8519 0l0 0c7.416458 0 14.529175 2.9461794 19.773407 8.1904125c5.244232 5.244232 8.190399 12.356937 8.190399 19.773403l0 120.954254c0 15.444 -12.519821 27.963821 -27.963806 27.963821l-111.8519 0l0 0c-15.443987 0 -27.963812 -12.519821 -27.963812 -27.963821z" fill-rule="evenodd"/><path stroke="#595959" stroke-width="8.0" stroke-linejoin="round" stroke-linecap="butt" d="m10.087927 36.39897l0 0c0 -15.443989 12.519825 -27.963816 27.963812 -27.963816l111.8519 0l0 0c7.416458 0 14.529175 2.9461794 19.773407 8.1904125c5.244232 5.244232 8.190399 12.356937 8.190399 19.773403l0 120.954254c0 15.444 -12.519821 27.963821 -27.963806 27.963821l-111.8519 0l0 0c-15.443987 0 -27.963812 -12.519821 -27.963812 -27.963821z" fill-rule="evenodd"/><path fill="#434343" d="m155.89168 159.2761l-27.25 0l-10.84375 -28.1875l-49.59375 0l-10.234379 28.1875l-26.578125 0l48.32813 -124.078125l26.484375 0l49.6875 124.078125zm-46.125 -49.093742l-17.09375 -46.03125l-16.765625 46.03125l33.859375 0z" fill-rule="nonzero"/><path fill="#ffe599" d="m252.11034 36.39897l0 0c0 -15.443989 12.519821 -27.963816 27.963821 -27.963816l111.8519 0l0 0c7.4164734 0 14.529175 2.9461794 19.773407 8.1904125c5.244232 5.244232 8.190399 12.356937 8.190399 19.773403l0 120.954254c0 15.444 -12.519836 27.963821 -27.963806 27.963821l-111.8519 0l0 0c-15.444 0 -27.963821 -12.519821 -27.963821 -27.963821z" fill-rule="evenodd"/><path stroke="#595959" stroke-width="8.0" stroke-linejoin="round" stroke-linecap="butt" d="m252.11034 36.39897l0 0c0 -15.443989 12.519821 -27.963816 27.963821 -27.963816l111.8519 0l0 0c7.4164734 0 14.529175 2.9461794 19.773407 8.1904125c5.244232 5.244232 8.190399 12.356937 8.190399 19.773403l0 120.954254c0 15.444 -12.519836 27.963821 -27.963806 27.963821l-111.8519 0l0 0c-15.444 0 -27.963821 -12.519821 -27.963821 -27.963821z" fill-rule="evenodd"/><path fill="#434343" d="m276.8319 97.99485q0 -18.953125 5.671875 -31.8125q4.234375 -9.484379 11.546875 -17.015629q7.328125 -7.53125 16.046875 -11.171875q11.59375 -4.90625 26.734375 -4.90625q27.421875 0 43.875 17.015625q16.46875 17.000004 16.46875 47.312504q0 30.03125 -16.328125 46.999992q-16.328125 16.96875 -43.671875 16.96875q-27.671875 0 -44.015625 -16.875q-16.328125 -16.890617 -16.328125 -46.515617zm25.8125 -0.84375q0 21.078125 9.734375 31.953117q9.734375 10.875 24.71875 10.875q14.96875 0 24.578125 -10.78125q9.609375 -10.796867 9.609375 -32.374992q0 -21.328125 -9.359375 -31.828125q-9.34375 -10.500004 -24.828125 -10.500004q-15.5 0 -24.984375 10.625004q-9.46875 10.625 -9.46875 32.03125z" fill-rule="nonzero"/><path fill="#ea9999" d="m494.13275 36.39897l0 0c0 -15.443989 12.519836 -27.963816 27.963806 -27.963816l111.85193 0l0 0c7.416443 0 14.529175 2.9461794 19.773376 8.1904125c5.2442627 5.244232 8.19043 12.356937 8.19043 19.773403l0 120.954254c0 15.444 -12.519836 27.963821 -27.963806 27.963821l-111.85193 0l0 0c-15.44397 0 -27.963806 -12.519821 -27.963806 -27.963821z" fill-rule="evenodd"/><path stroke="#595959" stroke-width="8.0" stroke-linejoin="round" stroke-linecap="butt" d="m494.13275 36.39897l0 0c0 -15.443989 12.519836 -27.963816 27.963806 -27.963816l111.85193 0l0 0c7.416443 0 14.529175 2.9461794 19.773376 8.1904125c5.2442627 5.244232 8.19043 12.356937 8.19043 19.773403l0 120.954254c0 15.444 -12.519836 27.963821 -27.963806 27.963821l-111.85193 0l0 0c-15.44397 0 -27.963806 -12.519821 -27.963806 -27.963821z" fill-rule="evenodd"/><path fill="#434343" d="m532.82764 159.2761l0 -124.078125l40.203125 0q22.84375 0 29.796875 1.875q10.65625 2.78125 17.84375 12.140625q7.203125 9.34375 7.203125 24.156254q0 11.421875 -4.15625 19.21875q-4.140625 7.78125 -10.53125 12.234375q-6.390625 4.4375 -12.984375 5.875q-8.984375 1.78125 -25.984375 1.78125l-16.34375 0l0 46.796867l-25.046875 0zm25.046875 -103.078125l0 35.20313l13.71875 0q14.8125 0 19.796875 -1.9375q5.0 -1.953125 7.828125 -6.09375q2.84375 -4.15625 2.84375 -9.65625q0 -6.765625 -3.984375 -11.171879q-3.96875 -4.40625 -10.0625 -5.5q-4.484375 -0.84375 -18.03125 -0.84375l-12.109375 0z" fill-rule="nonzero"/><path fill="#000000" fill-opacity="0.0" d="m419.88986 96.8761l74.23624 0" fill-rule="evenodd"/><path stroke="#595959" stroke-width="8.0" stroke-linejoin="round" stroke-linecap="butt" d="m419.8899 96.8761l26.236206 0" fill-rule="evenodd"/><path fill="#595959" stroke="#595959" stroke-width="8.0" stroke-linecap="butt" d="m446.1261 110.08996l36.30478 -13.21386l-36.30478 -13.21386z" fill-rule="evenodd"/><path fill="#000000" fill-opacity="0.0" d="m177.86745 96.8761l74.23622 0" fill-rule="evenodd"/><path stroke="#595959" stroke-width="8.0" stroke-linejoin="round" stroke-linecap="butt" d="m177.86745 96.8761l26.236221 0" fill-rule="evenodd"/><path fill="#595959" stroke="#595959" stroke-width="8.0" stroke-linecap="butt" d="m204.10368 110.08996l36.30478 -13.21386l-36.30478 -13.21386z" fill-rule="evenodd"/><path fill="#000000" fill-opacity="0.0" d="m10.089239 235.93544l651.81104 0l0 158.3307l-651.81104 0z" fill-rule="evenodd"/><path fill="#434343" d="m79.01069 424.16077l-51.734375 -216.64061l44.78125 0l32.65625 148.81248l39.609367 -148.81248l52.015625 0l37.984375 151.32811l33.25 -151.32811l44.03125 0l-52.609375 216.64061l-46.390625 0l-43.15625 -161.96875l-42.999992 161.96875l-47.4375 0zm251.95435 -178.21873l0 -38.421875l41.53125 0l0 38.421875l-41.53125 0zm0 178.21873l0 -156.9375l41.53125 0l0 156.9375l-41.53125 0zm82.618835 0l0 -216.64061l41.515625 0l0 114.968735l48.625 -55.265625l51.140625 0l-53.65625 57.328125l57.5 99.609375l-44.78125 0l-39.46875 -70.484375l-19.359375 20.234375l0 50.25l-41.515625 0zm169.79175 -178.21873l0 -38.421875l41.53125 0l0 38.421875l-41.53125 0zm0 178.21873l0 -156.9375l41.53125 0l0 156.9375l-41.53125 0z" fill-rule="nonzero"/><path fill="#000000" fill-opacity="0.0" d="m10.094488 391.6273l651.81104 0l0 326.4252l-651.81104 0z" fill-rule="evenodd"/><path fill="#001c3d" d="m94.22996 646.0399l0 -181.34375l77.06249 0q29.078125 0 42.25 4.890625q13.171875 4.890625 21.078125 17.390625q7.921875 12.484375 7.921875 28.5625q0 20.40625 -12.0 33.703125q-11.984375 13.296875 -35.859375 16.765625q11.875 6.921875 19.59375 15.21875q7.734375 8.28125 20.84375 29.4375l22.140625 35.375l-43.78125 0l-26.46875 -39.453125q-14.109375 -21.15625 -19.3125 -26.65625q-5.1875 -5.515625 -11.0 -7.546875q-5.8125 -2.046875 -18.421875 -2.046875l-7.421875 0l0 75.703125l-36.624992 0zm36.624992 -104.640625l27.078125 0q26.359375 0 32.90625 -2.21875q6.5625 -2.234375 10.265625 -7.671875q3.71875 -5.453125 3.71875 -13.609375q0 -9.15625 -4.890625 -14.78125q-4.890625 -5.640625 -13.796875 -7.125q-4.453125 -0.609375 -26.71875 -0.609375l-28.5625 0l0 46.015625zm146.08609 -76.703125l66.90625 0q22.640625 0 34.515625 3.46875q15.953125 4.703125 27.328125 16.703125q11.390625 12.0 17.328125 29.375q5.9375 17.375 5.9375 42.859375q0 22.390625 -5.5625 38.59375q-6.8125 19.796875 -19.421875 32.03125q-9.53125 9.28125 -25.734375 14.484375q-12.125 3.828125 -32.40625 3.828125l-68.890625 0l0 -181.34375zm36.609375 30.6875l0 120.109375l27.328125 0q15.34375 0 22.15625 -1.734375q8.90625 -2.234375 14.78125 -7.546875q5.875 -5.328125 9.578125 -17.5q3.71875 -12.1875 3.71875 -33.21875q0 -21.03125 -3.71875 -32.28125q-3.703125 -11.25 -10.390625 -17.5625q-6.671875 -6.3125 -16.9375 -8.53125q-7.671875 -1.734375 -30.0625 -1.734375l-16.453125 0zm146.69547 150.65625l0 -181.34375l124.31247 0l0 30.6875l-87.68747 0l0 42.921875l75.703094 0l0 30.671875l-75.703094 0l0 77.0625l-36.625 0z" fill-rule="nonzero"/></g></svg>