<svg version="1.1" viewBox="0.0 0.0 680.3149606299213 226.77165354330708" fill="none" stroke="none" stroke-linecap="square" stroke-miterlimit="10" xmlns:xlink="http://www.w3.org/1999/xlink" xmlns="http://www.w3.org/2000/svg"><clipPath id="p.0"><path d="m0 0l680.31494 0l0 226.77165l-680.31494 0l0 -226.77165z" clip-rule="nonzero"/></clipPath><g clip-path="url(#p.0)"><path fill="#ffffff" d="m0 0l680.31494 0l0 226.77165l-680.31494 0z" fill-rule="evenodd"/><path fill="#b6d7a8" d="m14.244095 52.908157l0 0c0 -15.443989 12.519825 -27.963816 27.963814 -27.963816l111.851906 0l0 0c7.416458 0 14.52916 2.9461803 19.773392 8.1904125c5.244232 5.244232 8.190414 12.356937 8.190414 19.773403l0 120.954254c0 15.444 -12.519821 27.963821 -27.963806 27.963821l-111.851906 0l0 0c-15.443989 0 -27.963814 -12.519821 -27.963814 -27.963821z" fill-rule="evenodd"/><path stroke="#595959" stroke-width="8.0" stroke-linejoin="round" stroke-linecap="butt" d="m14.244095 52.908157l0 0c0 -15.443989 12.519825 -27.963816 27.963814 -27.963816l111.851906 0l0 0c7.416458 0 14.52916 2.9461803 19.773392 8.1904125c5.244232 5.244232 8.190414 12.356937 8.190414 19.773403l0 120.954254c0 15.444 -12.519821 27.963821 -27.963806 27.963821l-111.851906 0l0 0c-15.443989 0 -27.963814 -12.519821 -27.963814 -27.963821z" fill-rule="evenodd"/><path fill="#434343" d="m160.04785 175.78528l-27.250015 0l-10.843742 -28.1875l-49.59375 0l-10.234375 28.1875l-26.578125 0l48.328125 -124.078125l26.484375 0l49.687508 124.078125zm-46.125008 -49.093742l-17.09375 -46.03125l-16.765625 46.03125l33.859375 0z" fill-rule="nonzero"/><path fill="#ffe599" d="m256.2665 52.908157l0 0c0 -15.443989 12.519836 -27.963816 27.963806 -27.963816l111.8519 0l0 0c7.4164734 0 14.529175 2.9461803 19.773407 8.1904125c5.244232 5.244232 8.190399 12.356937 8.190399 19.773403l0 120.954254c0 15.444 -12.519806 27.963821 -27.963806 27.963821l-111.8519 0l0 0c-15.44397 0 -27.963806 -12.519821 -27.963806 -27.963821z" fill-rule="evenodd"/><path stroke="#595959" stroke-width="8.0" stroke-linejoin="round" stroke-linecap="butt" d="m256.2665 52.908157l0 0c0 -15.443989 12.519836 -27.963816 27.963806 -27.963816l111.8519 0l0 0c7.4164734 0 14.529175 2.9461803 19.773407 8.1904125c5.244232 5.244232 8.190399 12.356937 8.190399 19.773403l0 120.954254c0 15.444 -12.519806 27.963821 -27.963806 27.963821l-111.8519 0l0 0c-15.44397 0 -27.963806 -12.519821 -27.963806 -27.963821z" fill-rule="evenodd"/><path fill="#434343" d="m280.98807 114.504036q0 -18.953125 5.671875 -31.8125q4.234375 -9.484375 11.546875 -17.015625q7.328125 -7.531254 16.046875 -11.171879q11.59375 -4.90625 26.734375 -4.90625q27.421875 0 43.875 17.015629q16.46875 17.0 16.46875 47.3125q0 30.031242 -16.328125 46.999992q-16.328125 16.96875 -43.671875 16.96875q-27.671875 0 -44.015625 -16.875q-16.328125 -16.890625 -16.328125 -46.515617zm25.8125 -0.84375q0 21.078117 9.734375 31.953117q9.734375 10.875 24.71875 10.875q14.96875 0 24.578125 -10.78125q9.609375 -10.796875 9.609375 -32.374992q0 -21.328125 -9.359375 -31.828125q-9.34375 -10.5 -24.828125 -10.5q-15.5 0 -24.984375 10.625q-9.46875 10.625 -9.46875 32.03125z" fill-rule="nonzero"/><path fill="#ea9999" d="m498.2889 52.908157l0 0c0 -15.443989 12.519836 -27.963816 27.963837 -27.963816l111.85187 0l0 0c7.416504 0 14.529175 2.9461803 19.773438 8.1904125c5.2442017 5.244232 8.190369 12.356937 8.190369 19.773403l0 120.954254c0 15.444 -12.519775 27.963821 -27.963806 27.963821l-111.85187 0l0 0c-15.444 0 -27.963837 -12.519821 -27.963837 -27.963821z" fill-rule="evenodd"/><path stroke="#595959" stroke-width="8.0" stroke-linejoin="round" stroke-linecap="butt" d="m498.2889 52.908157l0 0c0 -15.443989 12.519836 -27.963816 27.963837 -27.963816l111.85187 0l0 0c7.416504 0 14.529175 2.9461803 19.773438 8.1904125c5.2442017 5.244232 8.190369 12.356937 8.190369 19.773403l0 120.954254c0 15.444 -12.519775 27.963821 -27.963806 27.963821l-111.85187 0l0 0c-15.444 0 -27.963837 -12.519821 -27.963837 -27.963821z" fill-rule="evenodd"/><path fill="#434343" d="m536.9838 175.78528l0 -124.078125l40.203125 0q22.84375 0 29.796875 1.875q10.65625 2.78125 17.84375 12.140629q7.203125 9.34375 7.203125 24.15625q0 11.421875 -4.15625 19.21875q-4.140625 7.78125 -10.53125 12.234375q-6.390625 4.4375 -12.984375 5.875q-8.984375 1.7812424 -25.984375 1.7812424l-16.34375 0l0 46.796875l-25.046875 0zm25.046875 -103.07812l0 35.203125l13.71875 0q14.8125 0 19.796875 -1.9375q5.0 -1.953125 7.828125 -6.09375q2.84375 -4.15625 2.84375 -9.65625q0 -6.765625 -3.984375 -11.171875q-3.96875 -4.40625 -10.0625 -5.5q-4.484375 -0.84375 -18.03125 -0.84375l-12.109375 0z" fill-rule="nonzero"/><path fill="#000000" fill-opacity="0.0" d="m424.04602 113.385284l74.23624 0" fill-rule="evenodd"/><path stroke="#595959" stroke-width="8.0" stroke-linejoin="round" stroke-linecap="butt" d="m424.04605 113.385284l26.236237 0" fill-rule="evenodd"/><path fill="#595959" stroke="#595959" stroke-width="8.0" stroke-linecap="butt" d="m450.2823 126.599144l36.30478 -13.21386l-36.30478 -13.21386z" fill-rule="evenodd"/><path fill="#000000" fill-opacity="0.0" d="m182.02362 113.385284l74.23624 0" fill-rule="evenodd"/><path stroke="#595959" stroke-width="8.0" stroke-linejoin="round" stroke-linecap="butt" d="m182.02362 113.385284l26.236221 0" fill-rule="evenodd"/><path fill="#595959" stroke="#595959" stroke-width="8.0" stroke-linecap="butt" d="m208.25984 126.599144l36.30478 -13.21386l-36.30478 -13.21386z" fill-rule="evenodd"/></g></svg>